<svg xmlns="http://www.w3.org/2000/svg" viewBox="0 0 32 32"><path fill="#1F9CF0" d="M6.317 22.046l-.629-.314 3.981-4.266.938 1.005-4.29 3.575zM20 25.602L5.688 10.268l.599-.299L20 22.54v3.062zm0-14.958l-5.247 4.372-1.507-1.382L20 6.398v4.246zm6 13.189l-4 2.4V5.766l4 2.4v15.667z"/><path fill="#0065A9" d="M27.515 6.743l-6-3.6c-.027-.016-.057-.024-.086-.037-.397-.238-.91-.195-1.239.157l-8.419 9.021-4.64-4.254a1.003 1.003 0 00-1.123-.157L3.597 9.078a1.001 1.001 0 00-.284 1.576L8.302 16l-4.989 5.346a.999.999 0 00.284 1.576l2.411 1.206a.997.997 0 001.088-.127l4.879-4.066 8.215 8.802a.998.998 0 00.731.318.994.994 0 00.52-.167c.024-.012.05-.017.073-.031l6-3.6A1 1 0 0028 24.4V7.6a1 1 0 00-.485-.857zM6.317 22.046l-.629-.314 3.981-4.266.938 1.005-4.29 3.575zM20 25.602L5.688 10.268l.599-.299L20 22.54v3.062zm0-5.776l-3.759-3.446L20 13.248v6.578zm0-9.182l-5.247 4.372-1.507-1.382L20 6.398v4.246zm6 13.189l-4 2.4V5.766l4 2.4v15.667z"/></svg>